#!OML:ASF F:\VICON\USERDATA\INSTALL\rory3\rory3.ASF
:FULLY-SPECIFIED
:DEGREES
2452
root 0.0857475 18.6896 -0.642609 1.31865 -5.19683 0.24971
lowerback 7.78395 0.452318 -2.54429
upperback 0.383604 0.35034 -0.620002
thorax -3.98079 0.213887 0.749176
lowerneck -16.4603 -1.39723 -7.89777
upperneck 8.6283 -0.965854 6.62729
head 5.34499 -0.254748 3.28999
rclavicle -3.95085e-015 -1.27222e-014
rhumerus -58.3818 -57.4914 25.1983
rradius 15.3707
rwrist 29.6639
rhand -35.9587 2.5595
rfingers 7.12502
rthumb -9.06996 -27.2255
lclavicle -3.95085e-015 -1.27222e-014
lhumerus -55.5075 48.1142 -13.7362
lradius 11.1728
lwrist -24.1238
lhand -25.9235 31.0134
lfingers 7.12502
lthumb 0.619652 60.9922
rfemur -12.1082 23.5919 15.5904
rtibia 26.3575
rfoot -16.2952 -9.03618
rtoes -0.526449
lfemur -4.21881 -9.21338 -17.8022
ltibia 23.1983
lfoot -22.3242 24.5383
ltoes -1.47507
2453
root 0.0874892 18.6933 -0.646986 1.40316 -5.2555 0.149645
lowerback 7.57597 0.499742 -2.46199
upperback 0.480737 0.429974 -0.60224
thorax -3.76536 0.249131 0.714492
lowerneck -16.4167 -1.38358 -7.92105
upperneck 8.23688 -0.937799 6.67398
head 5.21351 -0.237094 3.30737
rclavicle -1.57288e-014 2.62396e-014
rhumerus -62.7854 -59.2329 28.3999
rradius 15.2821
rwrist 30.245
rhand -34.9596 2.01404
rfingers 7.12502
rthumb -8.10579 -27.8105
lclavicle -1.57288e-014 2.62396e-014
lhumerus -58.1834 50.0187 -15.5885
lradius 10.6747
lwrist -28.4124
lhand -25.2308 30.2748
lfingers 7.12502
lthumb 1.28866 60.2506
rfemur -12.1498 23.6466 15.6604
rtibia 26.2625
rfoot -16.2474 -9.07449
rtoes -0.818765
lfemur -4.25877 -9.28972 -17.7042
ltibia 23.1193
lfoot -22.3919 24.6466
ltoes -1.35455
2454
root 0.0894457 18.6968 -0.656076 1.55617 -5.20383 0.175576
lowerback 7.34976 0.515497 -2.51595
upperback 0.54197 0.455384 -0.590976
thorax -3.57645 0.260324 0.755712
lowerneck -16.4448 -1.4031 -8.03423
upperneck 7.94988 -0.935732 6.74618
head 5.12905 -0.232672 3.34651
rclavicle -3.37934e-015 3.97569e-016
rhumerus -66.2639 -60.4617 30.5157
rradius 15.1945
rwrist 30.2197
rhand -34.4621 1.54868
rfingers 7.12502
rthumb -7.62559 -28.2938
lclavicle -3.37934e-015 3.97569e-016
lhumerus -61.3859 52.1327 -17.9666
lradius 10.158
lwrist -32.428
lhand -24.668 29.1245
lfingers 7.12502
lthumb 1.83224 59.0964
rfemur -12.3161 23.5944 15.5511
rtibia 26.1952
rfoot -16.1603 -9.16013
rtoes -0.904751
lfemur -4.42984 -9.36024 -17.71
ltibia 23.0355
lfoot -22.3258 24.6846
ltoes -1.1794
2455
root 0.0908753 18.7002 -0.666794 1.6104 -5.14478 0.299955
lowerback 7.36201 0.551309 -2.63601
upperback 0.532929 0.491141 -0.62748
thorax -3.59459 0.279924 0.781496
lowerneck -16.4261 -1.44472 -8.12756
upperneck 7.75132 -0.973885 6.81571
head 5.06783 -0.248619 3.3786
rclavicle -5.46658e-016 -1.94809e-014
rhumerus -68.2118 -61.0233 30.8456
rradius 15.1492
rwrist 29.5099
rhand -34.1467 1.25122
rfingers 7.12502
rthumb -7.32113 -28.6021
lclavicle -5.46658e-016 -1.94809e-014
lhumerus -60.1174 52.2134 -14.6702
lradius 9.67473
lwrist -31.6592
lhand -24.986 28.6106
lfingers 7.12502
lthumb 1.52512 58.5849
rfemur -12.3882 23.5098 15.3726
rtibia 26.1315
rfoot -16.0502 -9.20509
rtoes -1.00955
lfemur -4.51691 -9.3674 -17.8318
ltibia 22.986
lfoot -22.2111 24.6686
ltoes -1.15096
2456
root 0.0888816 18.7036 -0.680011 1.62283 -5.12001 0.300365
lowerback 7.42881 0.585739 -2.70032
upperback 0.555792 0.53082 -0.598396
thorax -3.61052 0.300787 0.84311
lowerneck -16.5457 -1.43669 -8.05173
upperneck 7.60834 -0.942914 6.62533
head 5.03826 -0.241822 3.30719
rclavicle 2.73329e-016 -1.23246e-014
rhumerus -67.8155 -61.0198 28.5385
rradius 15.1431
rwrist 27.9162
rhand -33.9767 0.744431
rfingers 7.12502
rthumb -7.1571 -29.1145
lclavicle 2.73329e-016 -1.23246e-014
lhumerus -59.0124 52.2505 -11.5046
lradius 9.28665
lwrist -30.6444
lhand -25.7629 28.7186
lfingers 7.12502
lthumb 0.774744 58.6969
rfemur -12.4161 23.5269 15.3656
rtibia 26.0836
rfoot -15.9723 -9.26118
rtoes -0.999036
lfemur -4.56554 -9.42168 -17.815
ltibia 22.9529
lfoot -22.1597 24.7123
ltoes -1.21677
2457
root 0.0858358 18.7059 -0.694876 1.65472 -5.12354 0.178127
lowerback 7.47863 0.627609 -2.65015
upperback 0.56027 0.591736 -0.52883
thorax -3.6361 0.330974 0.880074
lowerneck -16.5545 -1.38934 -7.94401
upperneck 7.36642 -0.86422 6.36859
head 4.95587 -0.216448 3.21251
rclavicle -4.77083e-015 -3.57812e-015
rhumerus -67.2832 -61.0618 26.162
rradius 15.0602
rwrist 26.9472
rhand -33.7462 0.327955
rfingers 7.12502
rthumb -6.93457 -29.5385
lclavicle -4.77083e-015 -3.57812e-015
lhumerus -57.9131 52.186 -8.3272
lradius 8.98933
lwrist -29.8472
lhand -26.6462 29.6871
lfingers 7.12502
lthumb -0.0784147 59.6669
rfemur -12.4704 23.6799 15.5017
rtibia 26.0519
rfoot -15.8863 -9.44637
rtoes -1.17273
lfemur -4.64067 -9.44847 -17.6506
ltibia 22.9202
lfoot -22.0472 24.7884
ltoes -1.37301
